<?xml version="1.0" encoding="UTF-8"?>
<svg xmlns="http://www.w3.org/2000/svg" xmlns:xlink="http://www.w3.org/1999/xlink" width="512px" height="512px" viewBox="0 0 512 512" version="1.1">
<g id="surface1">
<path style=" stroke:none;fill-rule:nonzero;fill:rgb(0%,0%,0%);fill-opacity:1;" d="M 332.691406 227.113281 L 218.390625 112.832031 C 234.710938 48.042969 293.183594 0 363.050781 0 C 384.746094 0 405.3125 4.734375 423.914062 13.054688 L 357.355469 79.617188 C 336.535156 100.4375 336.535156 134.207031 357.355469 155.050781 C 378.175781 175.871094 411.945312 175.871094 432.789062 155.050781 L 499.347656 88.492188 C 507.667969 107.09375 512.40625 127.660156 512.40625 149.355469 C 512.40625 207.039062 479.382812 256.574219 431.488281 281.40625 L 355.09375 204.777344 L 332.734375 227.136719 Z M 18.410156 405.035156 C -6.144531 429.589844 -6.144531 469.398438 18.410156 493.953125 C 42.964844 518.507812 82.773438 518.507812 107.328125 493.953125 L 247.828125 353.449219 L 158.890625 264.535156 Z M 355.050781 265.089844 L 332.691406 287.445312 L 170.644531 125.398438 L 170.644531 64.597656 L 58.644531 0 L 0 58.644531 L 64.574219 170.667969 L 125.398438 170.667969 L 287.445312 332.714844 L 266.238281 353.921875 L 405.929688 493.609375 C 430.464844 518.144531 470.207031 518.144531 494.742188 493.609375 C 519.273438 469.078125 516.179688 432.425781 494.742188 404.800781 L 355.050781 265.109375 Z M 355.050781 265.089844 "/>
</g>
</svg>
